<?xml version="1.0" encoding="UTF-8"?> <svg xmlns="http://www.w3.org/2000/svg" id="Layer_2" data-name="Layer 2" viewBox="0 0 128.82 49.85"><defs><style> .cls-1 { fill: #f48908; } .cls-2 { fill: #2854ca; } </style></defs><g id="Layer_1-2" data-name="Layer 1"><g><path class="cls-2" d="M2.69,48.13v-5.92h.62v2.6h2.97v-2.6h.62v5.92h-.62v-2.76H3.3v2.76h-.62Z"></path><path class="cls-2" d="M12.82,48.21c-.46,0-.87-.09-1.23-.26-.35-.17-.65-.41-.89-.7s-.42-.62-.54-.98c-.12-.36-.18-.73-.18-1.11s.06-.74,.18-1.1c.12-.36,.3-.69,.54-.98,.24-.29,.53-.52,.89-.69,.36-.17,.76-.26,1.23-.26s.87,.09,1.22,.26c.35,.17,.65,.4,.88,.69,.24,.29,.42,.62,.54,.98,.12,.36,.18,.73,.18,1.1s-.06,.75-.18,1.11c-.12,.36-.3,.69-.54,.98-.24,.29-.53,.52-.88,.7-.35,.17-.76,.26-1.22,.26Zm0-.58c.43,0,.81-.11,1.14-.32,.33-.22,.59-.51,.78-.88,.19-.37,.28-.79,.28-1.26s-.09-.88-.28-1.25c-.19-.37-.45-.66-.78-.88-.33-.22-.71-.32-1.14-.32s-.82,.11-1.15,.32c-.33,.22-.59,.51-.78,.88-.19,.37-.28,.79-.28,1.25s.09,.89,.28,1.26c.19,.37,.45,.67,.78,.88,.33,.22,.71,.32,1.15,.32Zm0,2.22c-.13,0-.23-.04-.32-.13s-.12-.19-.12-.32,.04-.23,.12-.31,.19-.13,.32-.13,.23,.04,.32,.13c.08,.09,.13,.19,.13,.31s-.04,.23-.13,.32c-.09,.09-.19,.13-.32,.13Z"></path><path class="cls-2" d="M21.25,48.21c-.46,0-.86-.09-1.21-.26-.35-.17-.63-.41-.86-.7-.23-.29-.4-.62-.52-.98s-.17-.73-.17-1.11,.06-.75,.17-1.11c.12-.36,.29-.69,.52-.98,.23-.29,.52-.52,.86-.69,.35-.17,.75-.26,1.21-.26,.37,0,.7,.05,.96,.14,.27,.1,.49,.22,.68,.38,.18,.15,.33,.32,.44,.49,.11,.17,.2,.33,.25,.49,.06,.15,.1,.33,.14,.52h-.62c-.04-.19-.1-.36-.17-.5-.07-.14-.17-.29-.31-.43s-.31-.26-.54-.36c-.22-.1-.5-.14-.84-.14s-.66,.07-.93,.21-.49,.33-.67,.56-.31,.5-.4,.79c-.09,.29-.14,.59-.14,.9s.05,.6,.14,.9c.09,.29,.23,.56,.4,.8s.4,.43,.67,.56,.58,.21,.93,.21,.62-.05,.84-.14c.22-.1,.4-.22,.54-.36s.24-.29,.31-.43c.07-.14,.13-.31,.17-.51h.62c-.04,.2-.08,.37-.14,.52-.06,.15-.14,.31-.25,.49-.11,.17-.26,.34-.44,.49-.18,.15-.41,.28-.68,.38-.27,.1-.59,.14-.96,.14Z"></path><path class="cls-2" d="M30.52,48.13v-5.92h2.24c.37,0,.68,.07,.94,.21,.26,.14,.45,.33,.59,.55,.14,.23,.2,.47,.2,.73s-.05,.48-.14,.67-.21,.33-.35,.44c-.14,.11-.27,.19-.39,.22v.05c.17,.05,.34,.13,.51,.24,.17,.11,.31,.27,.42,.46s.17,.43,.17,.7-.07,.53-.2,.78-.34,.45-.62,.61c-.28,.16-.65,.24-1.1,.24h-2.27Zm2.22-5.38h-1.6v2.1h1.6c.27,0,.48-.05,.66-.16,.17-.1,.29-.24,.38-.4,.08-.16,.12-.33,.12-.5s-.04-.34-.12-.5-.21-.29-.38-.39c-.17-.1-.39-.15-.66-.15Zm.04,2.61h-1.64v2.22h1.64c.31,0,.56-.05,.75-.16,.19-.11,.33-.25,.42-.42s.14-.35,.14-.53-.04-.36-.14-.53-.23-.31-.42-.42c-.19-.11-.44-.16-.75-.16Z"></path><path class="cls-2" d="M37.41,48.13l2.1-5.92h.77l2.1,5.92h-.65l-.54-1.53h-2.58l-.54,1.53h-.66Zm2.48-6.54c-.24,0-.43-.03-.58-.1-.15-.07-.27-.16-.36-.26s-.15-.21-.19-.31c-.04-.1-.07-.23-.08-.37h.46c.03,.13,.06,.23,.11,.32s.12,.16,.22,.22c.1,.06,.24,.1,.42,.1s.31-.03,.42-.1c.1-.06,.18-.14,.22-.22,.05-.09,.09-.19,.11-.32h.46c-.02,.14-.04,.27-.08,.37-.04,.1-.1,.21-.19,.31-.09,.1-.2,.19-.36,.26-.15,.07-.34,.1-.58,.1Zm-1.1,4.46h2.21l-1.1-3.12-1.1,3.12Zm.85-5.71l-.79-1.38h.63l.69,1.37h-.53Z"></path><path class="cls-2" d="M45.32,48.13v-5.92h.57l3.3,4.82v-4.82h.62v5.92h-.57l-3.3-4.82v4.82h-.62Z"></path><path class="cls-2" d="M55.69,48.21c-.47,0-.88-.09-1.23-.26-.35-.17-.64-.4-.87-.69-.23-.29-.4-.62-.52-.98-.12-.36-.17-.73-.17-1.11s.06-.75,.17-1.11c.11-.36,.29-.69,.52-.98s.52-.52,.88-.7c.35-.17,.76-.26,1.24-.26,.37,0,.68,.05,.95,.14,.27,.09,.49,.21,.67,.36,.18,.15,.33,.3,.44,.47,.11,.17,.19,.32,.25,.47s.11,.31,.14,.5h-.62c-.05-.18-.11-.34-.18-.48-.07-.14-.17-.28-.3-.41-.13-.14-.31-.25-.53-.34-.22-.09-.49-.14-.82-.14-.37,0-.69,.07-.96,.21-.28,.14-.5,.33-.68,.56-.18,.24-.32,.5-.41,.8-.09,.29-.14,.59-.14,.9s.04,.62,.14,.92c.09,.3,.23,.56,.41,.8,.18,.23,.41,.42,.68,.56,.27,.14,.59,.21,.94,.21,.41,0,.76-.08,1.05-.25,.29-.17,.51-.4,.67-.71,.15-.3,.23-.66,.23-1.06h-1.86v-.52h2.46v.4c0,.56-.11,1.04-.32,1.45-.21,.41-.51,.72-.9,.93-.38,.22-.83,.32-1.33,.32Z"></path><path class="cls-2" d="M65.02,48.13v-5.92h1.85c.47,0,.88,.08,1.23,.25,.35,.17,.64,.39,.88,.68,.23,.28,.41,.6,.52,.95s.18,.71,.18,1.08-.06,.73-.18,1.08-.29,.67-.52,.95c-.23,.28-.52,.51-.88,.68-.35,.17-.76,.25-1.23,.25h-1.85Zm1.83-5.37h-1.22v4.82h1.22c.37,0,.69-.07,.96-.2,.27-.14,.5-.32,.69-.55,.18-.23,.32-.49,.41-.78,.09-.29,.14-.58,.14-.88s-.05-.59-.14-.88c-.09-.29-.23-.55-.41-.78-.18-.23-.41-.41-.69-.55-.28-.14-.6-.2-.96-.2Z"></path><path class="cls-2" d="M74.96,48.21c-.48,0-.88-.09-1.2-.28-.33-.19-.57-.44-.74-.78-.17-.33-.25-.71-.25-1.15v-3.79h.62v3.79c0,.48,.13,.87,.39,1.17,.26,.3,.66,.45,1.18,.45s.92-.15,1.18-.45c.26-.3,.39-.69,.39-1.17v-3.79h.54c.25,0,.37-.13,.37-.38v-.4h.58v.39c0,.23-.06,.43-.2,.58s-.33,.22-.59,.22h-.09v3.38c0,.44-.08,.82-.25,1.15-.17,.33-.42,.59-.74,.78-.33,.19-.73,.28-1.2,.28Zm.06,1.64c-.13,0-.24-.04-.32-.13-.08-.09-.12-.19-.12-.32s.04-.23,.12-.31c.08-.09,.19-.13,.32-.13,.12,0,.23,.04,.32,.13s.13,.19,.13,.31-.04,.23-.13,.32c-.09,.09-.19,.13-.32,.13Z"></path><path class="cls-2" d="M83.9,48.13l2.1-5.92h.77l2.1,5.92h-.65l-.54-1.53h-2.58l-.54,1.53h-.66Zm1.38-2.09h2.21l-1.1-3.12-1.1,3.12Zm1.38-4.5h-.52l.69-1.37h.63l-.8,1.37Z"></path><path class="cls-2" d="M91.81,48.13v-5.92h.57l3.3,4.82v-4.82h.62v5.92h-.57l-3.3-4.82v4.82h-.62Z"></path><path class="cls-2" d="M104.9,48.13v-5.37h-1.92v-.55h4.46v.55h-1.92v5.37h-.62Z"></path><path class="cls-2" d="M110.37,48.13v-5.92h.62v2.6h2.97v-2.6h.62v5.92h-.62v-2.76h-2.97v2.76h-.62Z"></path><path class="cls-2" d="M117.5,48.13l2.1-5.92h.77l2.1,5.92h-.65l-.54-1.53h-2.58l-.54,1.53h-.66Zm1.29-6.54l.94-1.15h.53l.94,1.15h-.56l-.65-.79-.65,.79h-.56Zm.1,4.45h2.21l-1.1-3.12-1.1,3.12Zm1.1,3.81c-.13,0-.24-.04-.32-.13-.09-.09-.13-.19-.13-.32s.04-.23,.13-.31c.08-.09,.19-.13,.32-.13s.23,.04,.32,.13c.09,.09,.13,.19,.13,.31s-.04,.23-.13,.32c-.08,.09-.19,.13-.32,.13Z"></path><path class="cls-2" d="M126.29,48.13v-5.37h-1.92v-.55h4.46v.55h-1.92v5.37h-.62Z"></path></g><g><path class="cls-2" d="M51.36,35.09h-6.7V11.09c0-.47-.09-.91-.27-1.31s-.42-.76-.73-1.07-.66-.54-1.07-.71-.84-.26-1.31-.26-.91,.09-1.31,.26-.76,.41-1.07,.71-.54,.66-.71,1.07-.26,.84-.26,1.31v24h-6.73V11.09c0-.47-.09-.91-.26-1.31s-.41-.76-.71-1.07-.66-.54-1.07-.71-.84-.26-1.31-.26-.91,.09-1.31,.26-.76,.41-1.07,.71-.54,.66-.71,1.07-.26,.84-.26,1.31v24h-6.73V11.09c0-1.39,.26-2.7,.79-3.93s1.24-2.3,2.16-3.21,1.98-1.63,3.21-2.16,2.54-.79,3.93-.79c1.25,0,2.45,.22,3.61,.67s2.2,1.09,3.12,1.93c.92-.84,1.96-1.49,3.11-1.93s2.35-.67,3.6-.67c1.39,0,2.7,.26,3.93,.79s2.3,1.24,3.21,2.16,1.63,1.98,2.16,3.21,.79,2.54,.79,3.93v24Z"></path><path class="cls-2" d="M80.7,35.09h-1.55l-2.48-3.45c-.61,.55-1.25,1.06-1.93,1.54s-1.39,.89-2.14,1.24-1.52,.63-2.31,.83-1.59,.3-2.4,.3c-1.77,0-3.43-.3-4.98-.89s-2.91-1.46-4.08-2.59-2.08-2.52-2.75-4.16-1.01-3.51-1.01-5.6c0-1.95,.34-3.75,1.01-5.38s1.59-3.04,2.75-4.21,2.52-2.08,4.08-2.73,3.21-.97,4.98-.97c.81,0,1.62,.1,2.41,.3s1.57,.48,2.32,.84,1.46,.78,2.14,1.27,1.32,1.01,1.91,1.57l2.48-2.98h1.55v25.05Zm-6.45-12.77c0-.88-.17-1.72-.5-2.54s-.79-1.55-1.37-2.18-1.25-1.14-2.03-1.52-1.6-.57-2.47-.57-1.7,.15-2.47,.45-1.45,.73-2.02,1.31-1.02,1.29-1.35,2.14-.49,1.82-.49,2.92,.16,2.07,.49,2.92,.78,1.57,1.35,2.14,1.24,1.02,2.02,1.31,1.6,.45,2.47,.45,1.7-.19,2.47-.57,1.45-.89,2.03-1.52,1.04-1.36,1.37-2.18,.5-1.67,.5-2.54Z"></path><path class="cls-2" d="M91.97,35.09h-6.4V9.98h1.55l2.11,2.98c1.03-.94,2.2-1.66,3.52-2.17s2.67-.76,4.08-.76h5.65v6.38h-5.65c-.67,0-1.3,.12-1.9,.38s-1.11,.59-1.55,1.03-.78,.95-1.03,1.55-.38,1.23-.38,1.9v13.83Z"></path><path class="cls-2" d="M111.9,35.09h-6.45V0h6.45V22.12l9.54-12.09h7.36l-8.32,10.45,8.32,14.6h-7.36l-5.09-9.12-4.45,5.91v3.21Z"></path></g><path class="cls-1" d="M6.66,9.98H3.22c-1.78,0-3.22,1.44-3.22,3.22H0c0,1.78,1.44,3.22,3.22,3.22h2.66c.43,0,.78,.35,.78,.78v14.66c0,1.78,1.44,3.22,3.22,3.22h0c1.78,0,3.22-1.44,3.22-3.22v-15.43s0-3.22,0-3.22c0-1.78-1.44-3.22-3.22-3.22h-3.22Z"></path><circle class="cls-1" cx="8.84" cy="4.36" r="3.5"></circle></g></svg> 